<?xml version="1.0" standalone="no"?>
<!DOCTYPE svg PUBLIC "-//W3C//DTD SVG 20010904//EN"
 "http://www.w3.org/TR/2001/REC-SVG-20010904/DTD/svg10.dtd">
<svg version="1.0" xmlns="http://www.w3.org/2000/svg"
 width="1194.000000pt" height="1280.000000pt" viewBox="0 0 1194.000000 1280.000000"
 preserveAspectRatio="xMidYMid meet">
<metadata>
Created by potrace 1.15, written by Peter Selinger 2001-2017
</metadata>
<g transform="translate(0.000000,1280.000000) scale(0.100000,-0.100000)"
fill="#000000" stroke="none">
<path d="M5695 12794 c-233 -17 -346 -27 -445 -40 -1129 -143 -2205 -605
-3080 -1323 -1078 -885 -1815 -2150 -2075 -3564 -66 -361 -90 -633 -89 -1047
0 -358 12 -534 55 -830 225 -1545 1045 -2962 2249 -3886 946 -726 2067 -1154
3259 -1244 174 -13 628 -13 802 0 1156 87 2247 493 3174 1180 1254 929 2104
2367 2334 3950 43 296 55 472 55 830 1 414 -23 686 -89 1047 -260 1414 -997
2679 -2075 3564 -927 760 -2055 1224 -3270 1344 -145 15 -693 27 -805 19z"/>
</g>
</svg>
